# xmcd CD database file
#
# Track frame offsets:
#	150
#	8017
#	19273
#	44959
#	66599
#	85462
#	99349
#	111000
#	126062
#	136153
#	151792
#	165857
#	180985
#	199785
#
# Disc length: 2917 seconds
#
# Revision: 1
# Processed by: cddbd v1.5.2PL0 Copyright (c) Steve Scherf et al.
# Submitted via: CDex 1.51
#
DISCID=af0b630e
DTITLE=Ognjen i prijatalji - Brate Frate
DYEAR=2002
DGENRE=Ethnic
TTITLE0=Uvertira
TTITLE1=Tetka Jana
TTITLE2=Pan
TTITLE3=Ponovo zajedno
TTITLE4=Bavaria
TTITLE5=Iz dana u dan
TTITLE6=Slatkica
TTITLE7=Mara
TTITLE8=Brate frate
TTITLE9=Mocartova popevka von Ognjen
TTITLE10=Svadba
TTITLE11=013
TTITLE12=Ana
TTITLE13=Zaboravljena zemlja
EXTD=YEAR: 2002
EXTT0=
EXTT1=
EXTT2=
EXTT3=
EXTT4=
EXTT5=
EXTT6=
EXTT7=
EXTT8=
EXTT9=
EXTT10=
EXTT11=
EXTT12=
EXTT13=
PLAYORDER=
